<?xml version="1.0" standalone="no"?>
<!DOCTYPE svg PUBLIC "-//W3C//DTD SVG 20010904//EN"
 "http://www.w3.org/TR/2001/REC-SVG-20010904/DTD/svg10.dtd">
<svg version="1.0" xmlns="http://www.w3.org/2000/svg"
 width="1600.000000pt" height="1200.000000pt" viewBox="0 0 1600.000000 1200.000000"
 preserveAspectRatio="xMidYMid meet">

<g transform="translate(0.000000,1200.000000) scale(0.100000,-0.100000)"
fill="#000000" stroke="none">
<path d="M0 6000 l0 -6000 8000 0 8000 0 0 6000 0 6000 -8000 0 -8000 0 0
-6000z m9069 2267 c40 -14 99 -43 130 -63 110 -73 143 -120 378 -525 322 -557
572 -993 570 -995 -1 -1 -294 -169 -651 -374 -356 -204 -652 -368 -656 -363
-10 9 -384 653 -633 1088 -88 154 -171 297 -184 318 l-23 37 192 332 c168 290
202 341 263 404 76 76 169 130 275 159 84 23 245 15 339 -18z m-1802 -679
l631 -375 -105 -184 c-222 -387 -477 -830 -1035 -1794 -115 -198 -218 -384
-230 -415 -17 -44 -22 -77 -22 -170 -1 -63 3 -131 8 -150 4 -19 6 -33 3 -30
-10 11 -737 1259 -765 1315 -53 107 -74 189 -79 321 -4 89 -1 141 11 202 30
149 0 94 718 1327 188 322 198 337 217 332 9 -3 300 -173 648 -379z m2935
-1760 c-11 -18 -324 -558 -695 -1200 -372 -642 -687 -1184 -701 -1206 -41 -66
-127 -81 -173 -29 -11 12 -102 158 -202 324 -189 313 -212 342 -296 377 -22
10 -75 20 -117 23 l-78 6 0 748 0 749 928 0 c1030 0 1004 -1 1142 67 54 26 93
55 140 103 36 37 66 68 68 69 2 0 -5 -14 -16 -31z"/>
</g>
</svg>
